<svg width="100" height="100" viewBox="0 0 100 100" fill="none" xmlns="http://www.w3.org/2000/svg">
<path fill-rule="evenodd" clip-rule="evenodd" d="M38.2562 19.4586C37.0336 20.3755 37.8996 22.9734 39.8353 24.2469C41.4654 25.3167 48.444 25.6732 53.538 25.011C67.4953 23.1263 75.1362 26.9467 74.3721 35.3517C73.3024 47.679 73.0986 56.3897 73.8627 60.5667C74.7287 65.4059 74.6269 65.0493 72.9969 63.8268C71.4178 62.6552 67.801 60.261 65.7634 58.9876C64.0824 57.9688 61.1788 56.4916 60.6185 58.3763C59.7016 61.4836 56.9508 66.2719 54.5058 69.532C48.9534 76.9182 38.2562 78.5992 29.0871 77.0201C25.2157 76.3579 25.1138 75.0335 25.2666 72.1299C25.776 61.7383 26.4891 34.0273 27.7116 28.1693C28.3229 25.2148 29.0361 24.7054 31.3284 24.0432C35.3526 22.9225 32.6019 20.9868 27.8646 21.5472C24.5535 21.9547 22.6688 23.1772 21.4972 27.507C19.7143 34.282 19.918 46.6093 18.6955 71.8243C18.3899 77.7332 21.8537 79.7708 26.8458 80.2802C29.8003 80.5859 34.2829 80.6877 41.8219 80.7896C51.1947 80.8915 55.8811 81.0443 59.0393 80.5858C62.6051 80.0765 64.1844 78.803 68.4123 76.0013C81.7585 67.036 81.249 67.851 81.2999 56.0331C81.4018 28.9333 77.6323 22.0056 62.2486 21.2925C57.766 21.0887 53.4361 20.5793 51.8061 20.1208C47.5272 18.9492 39.4787 18.5417 38.2562 19.4586ZM47.3233 33.9254C43.6047 34.231 42.3314 36.9818 45.4896 37.8477C48.0875 38.5609 61.1279 38.7137 65.4577 38.2552C68.1066 37.9496 67.0368 36.0649 64.8973 35.1479C61.7391 33.7726 55.2698 33.2632 47.3233 33.9254ZM40.9051 44.317C32.1435 44.7245 34.4358 47.1187 38.3071 47.8828C46.1518 49.411 66.9859 49.6147 66.9859 47.5772C66.9859 44.7755 57.0019 43.5529 40.9051 44.317ZM40.9558 61.3817C44.5725 61.2798 51.8061 60.6686 53.1305 60.261C55.4228 59.5479 52.2646 57.1028 48.2913 56.5425C42.9427 55.7784 40.7011 55.5746 39.4277 55.6765C32.7037 56.0331 35.6581 61.5345 40.9558 61.3817ZM73.8117 67.0869C73.2004 67.5454 67.3424 73.4543 60.3128 76.4088C57.6639 77.5295 56.2886 77.3767 58.0205 75.1353C59.3959 72.6393 64.1334 62.0949 65.305 62.0949C65.9672 62.1458 73.8117 67.0869 73.8117 67.0869Z" fill="black"/>
</svg>
